<svg width="144" height="31" viewBox="0 0 144 31" fill="none" xmlns="http://www.w3.org/2000/svg">
<path d="M6.91104 3.42124L6.04883 4.23108V20.1094L7.99739 21.934L8.03467 21.9692V3.25073H7.3413C7.18126 3.25073 7.02751 3.31148 6.91104 3.42124Z" fill="white"/>
<path d="M3.87937 6.67185L3.01758 7.48127V17.2128L4.99631 19.1123L5.00343 19.119V6.50134H4.30964C4.1496 6.50134 3.99584 6.56208 3.87937 6.67185Z" fill="white"/>
<path d="M0.862628 9.90784L0 10.718V12.3729C0.121078 13.8359 0.794757 15.2055 1.89409 16.1959L1.98626 16.2788V9.7373H1.29289C1.13285 9.7373 0.979097 9.79805 0.862628 9.90784Z" fill="white"/>
<path d="M22.4629 3.25073H21.7695V21.9692L21.8068 21.934L23.7554 20.1094V4.23108L22.8932 3.42124C22.7767 3.31189 22.623 3.25073 22.4629 3.25073Z" fill="white"/>
<path d="M25.4946 6.50134H24.8008V19.119L24.8079 19.1123L26.7866 17.2128V7.48127L25.9249 6.67185C25.8084 6.5625 25.6546 6.50134 25.4946 6.50134Z" fill="white"/>
<path d="M28.942 9.90784C28.8255 9.79847 28.6718 9.7373 28.5117 9.7373H27.8184V16.2788L27.9105 16.1959C29.0099 15.2055 29.6836 13.8359 29.8046 12.3729V10.718L28.942 9.90784Z" fill="white"/>
<path d="M18.8266 0V9.71388C18.8266 10.3725 18.7785 10.941 18.6888 11.4295C18.4073 12.9679 17.7185 13.7153 16.8475 13.9835V11.4844L17.4294 10.9021L17.1265 10.5992H13.591L12.4644 11.7261L12.7732 12.2234C12.901 12.2268 13.0191 12.2561 13.1247 12.3056C13.2298 12.355 13.322 12.4245 13.3978 12.5079C13.6882 12.8276 13.6861 13.3173 13.4129 13.6521C13.4129 13.6521 13.1125 14.0036 13.1067 14.0019C12.2067 13.7501 11.4924 13.004 11.2042 11.4295C11.1145 10.941 11.0664 10.3725 11.0664 9.71388V0H10.373C10.2129 0 10.0592 0.060749 9.9427 0.170515L9.08008 0.980773V23.1029L11.0441 24.8729L11.0664 24.893V24.8197L12.8632 20.5204L14.348 19.6838L11.0668 27.5358L14.9471 30.9813L18.8275 27.5358L15.5462 19.6842L17.0306 20.5204L18.8271 24.8197V24.893L18.8493 24.8729L20.8133 23.1029V0.78177L20.0571 0.147053C19.944 0.051951 19.8007 0 19.6532 0H18.8266Z" fill="white"/>
<path d="M43.2305 24.1731V3.03442H50.7653C52.403 3.03442 53.762 3.31654 54.8423 3.88079C55.9295 4.44504 56.7415 5.22605 57.2782 6.22381C57.815 7.21468 58.0833 8.36039 58.0833 9.66091C58.0833 10.9545 57.8115 12.0933 57.2679 13.0773C56.7312 14.0545 55.9192 14.8148 54.832 15.3584C53.7517 15.902 52.3927 16.1738 50.755 16.1738H45.0471V13.4283H50.466C51.4981 13.4283 52.3376 13.2803 52.9844 12.9844C53.6381 12.6886 54.1164 12.2585 54.4191 11.6942C54.7219 11.13 54.8733 10.4522 54.8733 9.66091C54.8733 8.86271 54.7185 8.17116 54.4088 7.58626C54.1061 7.00137 53.6278 6.5541 52.9741 6.24445C52.3273 5.92792 51.4775 5.76965 50.4247 5.76965H46.4199V24.1731H43.2305ZM53.6657 14.6359L58.8884 24.1731H55.2552L50.1357 14.6359H53.6657Z" fill="white"/>
<path d="M66.0256 24.4931C64.4636 24.4931 63.1184 24.1593 61.9899 23.4919C60.8682 22.8175 60.0012 21.8714 59.3888 20.6534C58.7833 19.4286 58.4805 17.9939 58.4805 16.3493C58.4805 14.7254 58.7833 13.2941 59.3888 12.0555C60.0012 10.8169 60.8545 9.85014 61.9486 9.15515C63.0495 8.46016 64.3363 8.11267 65.8089 8.11267C66.7034 8.11267 67.5704 8.26061 68.4099 8.5565C69.2494 8.85238 70.0029 9.31686 70.6704 9.94994C71.3378 10.5829 71.8642 11.4052 72.2496 12.4168C72.6349 13.4214 72.8276 14.6428 72.8276 16.0809V17.175H60.2249V14.863H69.8033C69.8033 14.051 69.6382 13.3319 69.3079 12.7058C68.9776 12.0727 68.5131 11.5738 67.9145 11.2091C67.3227 10.8444 66.6277 10.6621 65.8295 10.6621C64.9625 10.6621 64.2056 10.8754 63.5588 11.302C62.9188 11.7218 62.4234 12.2722 62.0724 12.9535C61.7284 13.6278 61.5563 14.3607 61.5563 15.152V16.9583C61.5563 18.018 61.7421 18.9194 62.1137 19.6625C62.4922 20.4057 63.0186 20.9734 63.6929 21.3656C64.3673 21.751 65.1552 21.9436 66.0566 21.9436C66.6415 21.9436 67.1748 21.8611 67.6564 21.6959C68.1381 21.5239 68.5544 21.2693 68.9054 20.9321C69.2563 20.5949 69.5247 20.1786 69.7104 19.6832L72.6315 20.2096C72.3975 21.0697 71.9778 21.8232 71.3722 22.47C70.7736 23.11 70.0201 23.6088 69.1118 23.9667C68.2104 24.3176 67.1816 24.4931 66.0256 24.4931Z" fill="white"/>
<path d="M73.9277 30.1184V8.3191H76.9416V10.8891H77.1997C77.3786 10.5589 77.6366 10.177 77.9738 9.74349C78.311 9.30998 78.7789 8.93152 79.3776 8.60811C79.9762 8.27781 80.7675 8.11267 81.7515 8.11267C83.0314 8.11267 84.1737 8.43608 85.1783 9.0829C86.183 9.72972 86.9708 10.6621 87.542 11.88C88.12 13.098 88.409 14.5637 88.409 16.277C88.409 17.9904 88.1234 19.4595 87.5523 20.6844C86.9812 21.9023 86.1967 22.8416 85.199 23.5022C84.2012 24.1559 83.0624 24.4827 81.7825 24.4827C80.8191 24.4827 80.0313 24.321 79.4188 23.9976C78.8133 23.6742 78.3385 23.2958 77.9945 22.8622C77.6504 22.4287 77.3855 22.0434 77.1997 21.7062H77.0139V30.1184H73.9277ZM76.952 16.2461C76.952 17.3608 77.1137 18.3379 77.4371 19.1774C77.7605 20.0169 78.2284 20.6741 78.8408 21.1489C79.4532 21.6168 80.2033 21.8507 81.0909 21.8507C82.013 21.8507 82.7837 21.6065 83.403 21.1179C84.0223 20.6225 84.4902 19.9515 84.8067 19.1052C85.1301 18.2588 85.2918 17.3058 85.2918 16.2461C85.2918 15.2002 85.1336 14.2609 84.8171 13.4283C84.5074 12.5957 84.0395 11.9385 83.4133 11.4568C82.794 10.9752 82.0199 10.7343 81.0909 10.7343C80.1964 10.7343 79.4395 10.9648 78.8202 11.4259C78.2078 11.8869 77.7433 12.5303 77.4268 13.356C77.1102 14.1818 76.952 15.1451 76.952 16.2461Z" fill="white"/>
<path d="M99.5839 17.5982V8.31909H102.68V24.1731H99.6459V21.4275H99.4807C99.116 22.2739 98.5311 22.9792 97.726 23.5435C96.9278 24.1008 95.9335 24.3795 94.7431 24.3795C93.7247 24.3795 92.8233 24.1559 92.0388 23.7086C91.2612 23.2545 90.6488 22.5836 90.2016 21.6959C89.7612 20.8082 89.541 19.7107 89.541 18.4033V8.31909H92.6271V18.0317C92.6271 19.1121 92.9265 19.9722 93.5251 20.6121C94.1238 21.2521 94.9013 21.572 95.8578 21.572C96.4358 21.572 97.0104 21.4275 97.5815 21.1385C98.1595 20.8495 98.6378 20.4126 99.0162 19.8277C99.4016 19.2428 99.5908 18.4996 99.5839 17.5982Z" fill="white"/>
<path d="M104.748 24.1731V3.03442H107.834V10.8891H108.02C108.199 10.5589 108.457 10.177 108.794 9.74349C109.132 9.30998 109.599 8.93152 110.198 8.60811C110.797 8.27781 111.588 8.11267 112.572 8.11267C113.852 8.11267 114.994 8.43608 115.999 9.0829C117.004 9.72972 117.791 10.6621 118.363 11.88C118.941 13.098 119.23 14.5637 119.23 16.277C119.23 17.9904 118.944 19.4595 118.373 20.6844C117.802 21.9023 117.017 22.8416 116.02 23.5022C115.022 24.1559 113.883 24.4827 112.603 24.4827C111.64 24.4827 110.852 24.321 110.239 23.9976C109.634 23.6742 109.159 23.2958 108.815 22.8622C108.471 22.4287 108.206 22.0434 108.02 21.7062H107.762V24.1731H104.748ZM107.773 16.2461C107.773 17.3608 107.934 18.3379 108.258 19.1774C108.581 20.0169 109.049 20.6741 109.661 21.1489C110.274 21.6168 111.024 21.8507 111.912 21.8507C112.834 21.8507 113.604 21.6065 114.224 21.1179C114.843 20.6225 115.311 19.9515 115.627 19.1052C115.951 18.2588 116.112 17.3058 116.112 16.2461C116.112 15.2002 115.954 14.2609 115.638 13.4283C115.328 12.5957 114.86 11.9385 114.234 11.4568C113.615 10.9752 112.84 10.7343 111.912 10.7343C111.017 10.7343 110.26 10.9648 109.641 11.4259C109.028 11.8869 108.564 12.5303 108.247 13.356C107.931 14.1818 107.773 15.1451 107.773 16.2461Z" fill="white"/>
<path d="M123.457 3.03442V24.1731H120.371V3.03442H123.457Z" fill="white"/>
<path d="M125.284 24.1731V8.31904H128.37V24.1731H125.284ZM126.842 5.87281C126.305 5.87281 125.844 5.6939 125.459 5.33608C125.081 4.97139 124.891 4.53788 124.891 4.03556C124.891 3.52636 125.081 3.09285 125.459 2.73503C125.844 2.37033 126.305 2.18799 126.842 2.18799C127.379 2.18799 127.836 2.37033 128.215 2.73503C128.6 3.09285 128.793 3.52636 128.793 4.03556C128.793 4.53788 128.6 4.97139 128.215 5.33608C127.836 5.6939 127.379 5.87281 126.842 5.87281Z" fill="white"/>
<path d="M136.874 24.4931C135.34 24.4931 134.019 24.1456 132.911 23.4506C131.81 22.7487 130.964 21.7819 130.372 20.5502C129.78 19.3185 129.484 17.9079 129.484 16.3183C129.484 14.7082 129.787 13.2872 130.392 12.0555C130.998 10.8169 131.851 9.85014 132.952 9.15515C134.053 8.46016 135.35 8.11267 136.844 8.11267C138.048 8.11267 139.121 8.3363 140.064 8.78357C141.007 9.22396 141.767 9.84326 142.345 10.6414C142.93 11.4396 143.277 12.372 143.387 13.4386H140.384C140.219 12.6954 139.84 12.0555 139.248 11.5188C138.664 10.982 137.879 10.7137 136.895 10.7137C136.035 10.7137 135.281 10.9408 134.635 11.3949C133.995 11.8422 133.496 12.4821 133.138 13.3147C132.78 14.1405 132.601 15.1176 132.601 16.2461C132.601 17.4021 132.777 18.3999 133.128 19.2394C133.479 20.0788 133.974 20.7291 134.614 21.1901C135.261 21.6512 136.021 21.8817 136.895 21.8817C137.48 21.8817 138.01 21.775 138.485 21.5617C138.966 21.3415 139.369 21.0284 139.692 20.6225C140.023 20.2165 140.253 19.7279 140.384 19.1568H143.387C143.277 20.1821 142.944 21.0973 142.386 21.9023C141.829 22.7074 141.082 23.3405 140.146 23.8015C139.217 24.2626 138.127 24.4931 136.874 24.4931Z" fill="white"/>
</svg>
