<svg width="84" height="88" viewBox="0 0 84 88" fill="none" xmlns="http://www.w3.org/2000/svg">
<path d="M19.4658 9.63716L17.0371 11.9185V56.647L22.526 61.786L22.631 61.885V9.15686H20.6779C20.227 9.15686 19.7939 9.32796 19.4658 9.63716Z" fill="white"/>
<path d="M10.9256 18.794L8.49805 21.0741V48.4869L14.0719 53.8379L14.092 53.8569V18.3137H12.1376C11.6868 18.3137 11.2537 18.4848 10.9256 18.794Z" fill="white"/>
<path d="M2.42995 27.9095L0 30.192V34.8536C0.341066 38.9747 2.23876 42.8327 5.3355 45.6226L5.59514 45.8562V27.4292H3.64197C3.19115 27.4292 2.75803 27.6003 2.42995 27.9095Z" fill="white"/>
<path d="M63.2774 9.15686H61.3242V61.885L61.4293 61.786L66.9182 56.647V11.9185L64.4894 9.63716C64.1613 9.32916 63.7282 9.15686 63.2774 9.15686Z" fill="white"/>
<path d="M71.8195 18.3137H69.8652V53.8569L69.8852 53.8379L75.4591 48.4869V21.0741L73.0315 18.794C72.7034 18.486 72.2703 18.3137 71.8195 18.3137Z" fill="white"/>
<path d="M81.5265 27.9095C81.1984 27.6015 80.7653 27.4292 80.3145 27.4292H78.3613V45.8562L78.6209 45.6226C81.7177 42.8327 83.6154 38.9747 83.9565 34.8536V30.192L81.5265 27.9095Z" fill="white"/>
<path d="M53.0314 0V27.3632C53.0314 29.2184 52.8957 30.8199 52.6432 32.196C51.8501 36.5295 49.9099 38.6349 47.4564 39.3902V32.3506L49.0956 30.7102L48.2424 29.8569H38.283L35.1095 33.0315L35.9793 34.4324C36.3393 34.4418 36.6721 34.5244 36.9695 34.6637C37.2657 34.803 37.5253 34.9989 37.7389 35.2337C38.5568 36.1342 38.5509 37.5138 37.7814 38.4567C37.7814 38.4567 36.9353 39.4469 36.9187 39.4422C34.3837 38.7329 32.3716 36.631 31.5596 32.196C31.3071 30.8199 31.1714 29.2184 31.1714 27.3632V0H29.2182C28.7674 0 28.3342 0.1712 28.0062 0.4804L25.5762 2.7628V65.079L31.1088 70.065L31.1714 70.122V69.915L36.2331 57.804L40.4155 55.447L31.1725 77.566L42.1032 87.272L53.0338 77.566L43.7908 55.449L47.9721 57.804L53.0326 69.915V70.122L53.0952 70.065L58.6278 65.079V2.2022L56.4976 0.414299C56.1789 0.146399 55.7753 0 55.3599 0H53.0314Z" fill="white"/>
</svg>
